# xmcd
#
# Track frame offsets:
# 150
# 14819
# 30174
# 45121
# 62825
# 78381
# 95013
# 114578
# 123465
# 144198
# 154917
# 168250
# 178926
# 194318
# 211794
# 224927
# 237552
# 246549
# 260387
# 278285
# 293898
# 316102
# 331658
#
# Disc length: 4663 seconds
#
#
# Revision: 0
# Processed by: cddbd v1.5.2PL0 Copyright (c) Steve Scherf et al.
# Submitted via: FreeRIP 2.90 
#
DISCID=4b123517
DTITLE=Paula Fernandes - Amelinha
DYEAR=2011
DGENRE=Pop
TTITLE0=Paula Fernandes - Borboletas
TTITLE1=Paula Fernandes - Pra que Conversar
TTITLE2=Paula Fernandes - Tarde demais
TTITLE3=Paula Fernandes - Meu eu em voce
TTITLE4=Paula Fernandes - Por voce
TTITLE5=Paula Fernandes - Tocando em frente
TTITLE6=Paula Fernandes - Quando a chuva passar
TTITLE7=Paula Fernandes - Saio de Minas
TTITLE8=Paula Fernandes - Jeito de matos
TTITLE9=Paula Fernandes - Amargurado
TTITLE10=Paula Fernandes - Sem voce
TTITLE11=Paula Fernandes - Ainda hoje chorei de saudade
TTITLE12=Paula Fernandes - Navegar em Mim
TTITLE13=Paula Fernandes - Voa
TTITLE14=Paula Fernandes - Debaixo do cacho
TTITLE15=Paula Fernandes - Apaixonado
TTITLE16=Paula Fernandes - E dai
TTITLE17=Paula Fernandes - Getcha
TTITLE18=Paula Fernandes - Whose
TTITLE19=Paula Fernandes - Isso eh amar voce
TTITLE20=Paula Fernandes - Passaro de Fogo
TTITLE21=Paula Fernandes - Complicado demais
TTITLE22=Paula Fernandes - Quero sim
EXTD=
EXTT0=
EXTT1=
EXTT2=
EXTT3=
EXTT4=
EXTT5=
EXTT6=
EXTT7=
EXTT8=
EXTT9=
EXTT10=
EXTT11=
EXTT12=
EXTT13=
EXTT14=
EXTT15=
EXTT16=
EXTT17=
EXTT18=
EXTT19=
EXTT20=
EXTT21=
EXTT22=
PLAYORDER=
